{"glyphs":{"0":{"ha":833,"x_min":85,"x_max":750,"o":"m 303 253 q 343 199 315 218 q 414 179 371 179 l 419 179 q 509 214 478 179 q 540 307 540 249 l 540 517 l 303 253 m 529 726 q 488 776 515 758 q 419 794 460 794 l 414 794 q 326 760 357 794 q 296 667 296 725 l 296 467 l 529 726 m 85 656 q 108 792 85 731 q 175 896 132 853 q 280 963 218 939 q 417 986 342 986 q 555 963 493 986 q 660 897 617 940 q 726 793 703 854 q 750 656 750 732 l 750 318 q 726 181 750 243 q 659 76 703 119 q 554 10 615 33 q 417 -14 493 -14 q 280 10 342 -14 q 175 76 218 33 q 108 181 132 119 q 85 318 85 243 l 85 656 z "},"1":{"ha":833,"x_min":76,"x_max":757,"o":"m 526 251 q 569 208 526 208 l 757 208 l 757 0 l 76 0 l 76 208 l 265 208 q 308 251 308 208 l 308 599 q 265 642 308 642 l 76 642 l 76 833 l 131 833 q 273 867 222 833 q 346 972 324 901 l 526 972 l 526 251 z "},"2":{"ha":833,"x_min":85,"x_max":750,"o":"m 357 236 q 386 208 357 208 l 750 208 l 750 0 l 85 0 l 85 165 q 160 331 85 263 l 453 615 q 485 665 476 639 q 488 714 493 692 q 464 751 482 736 q 417 765 446 765 l 92 765 l 92 972 l 494 972 q 678 919 613 972 q 743 769 743 865 q 715 654 743 708 q 621 539 686 600 l 376 293 q 361 274 365 282 q 357 254 357 265 l 357 236 z "},"3":{"ha":833,"x_min":85,"x_max":750,"o":"m 476 535 l 554 526 q 698 456 646 517 q 750 297 750 396 l 750 258 q 678 67 750 133 q 469 0 606 0 l 85 0 l 85 176 l 401 176 q 525 276 525 176 l 525 321 q 501 387 525 364 q 433 410 478 410 l 214 410 l 214 535 l 499 797 l 94 797 l 94 972 l 739 972 l 739 817 q 706 747 739 776 l 476 535 z "},"4":{"ha":833,"x_min":74,"x_max":781,"o":"m 451 429 q 475 453 475 429 l 475 783 q 466 799 475 797 q 449 788 457 801 l 249 464 q 242 439 239 449 q 260 429 244 429 l 451 429 m 692 972 l 692 429 l 781 429 l 781 229 l 692 229 l 692 0 l 475 0 l 475 229 l 74 229 l 74 485 l 338 911 q 388 956 353 939 q 463 972 424 972 l 692 972 z "},"5":{"ha":833,"x_min":85,"x_max":750,"o":"m 299 644 q 326 614 299 621 l 564 557 q 701 463 651 538 q 750 281 750 389 q 681 75 750 150 q 489 0 611 0 l 85 0 l 85 192 l 440 192 q 508 222 483 192 q 533 300 533 251 q 513 373 533 344 q 457 410 493 401 l 185 474 q 114 519 139 483 q 89 607 89 554 l 89 972 l 733 972 l 733 781 l 328 781 q 299 753 299 781 l 299 644 z "},"6":{"ha":833,"x_min":74,"x_max":763,"o":"m 283 331 q 417 181 283 181 l 418 181 q 553 331 553 181 l 553 353 q 517 463 553 424 q 418 501 482 501 l 417 501 q 318 463 353 501 q 283 353 283 424 l 283 331 m 381 649 q 463 660 421 660 q 585 636 529 660 q 680 570 640 613 q 741 467 719 528 q 763 333 763 407 q 738 192 763 256 q 667 82 713 128 q 556 11 621 36 q 413 -14 492 -14 q 272 10 335 -14 q 165 81 208 35 q 97 191 121 126 q 74 336 74 256 q 80 415 74 375 q 101 499 86 454 q 139 597 115 543 q 199 719 163 651 l 331 972 l 553 972 l 381 649 z "},"7":{"ha":833,"x_min":74,"x_max":763,"o":"m 74 765 l 74 972 l 763 972 l 763 793 q 758 752 763 774 q 744 710 754 731 l 436 0 l 200 0 l 524 726 q 499 765 540 765 l 74 765 z "},"8":{"ha":833,"x_min":79,"x_max":756,"o":"m 297 279 q 408 164 297 164 l 426 164 q 539 279 539 164 l 539 313 q 426 421 539 421 l 408 421 q 297 313 297 421 l 297 279 m 307 689 q 331 608 307 633 q 408 583 356 583 l 426 583 q 503 608 479 583 q 528 689 528 633 l 528 703 q 419 810 528 810 l 414 810 q 307 703 307 810 l 307 689 m 631 501 q 722 428 688 481 q 756 307 756 376 l 756 249 q 669 53 756 119 q 417 -14 582 -14 q 165 53 251 -14 q 79 249 79 119 l 79 307 q 112 428 79 376 q 199 501 144 481 q 119 577 149 526 q 89 694 89 628 l 89 736 q 175 922 89 857 q 417 986 261 986 q 660 922 574 986 q 746 736 746 857 l 746 694 q 715 577 746 628 q 631 501 683 526 z "},"9":{"ha":833,"x_min":74,"x_max":763,"o":"m 553 643 q 418 792 553 792 q 283 643 283 792 l 283 621 q 319 511 283 550 q 418 472 354 472 q 518 511 483 472 q 553 621 553 550 l 553 643 m 454 325 q 372 314 414 314 q 251 338 306 314 q 156 403 196 361 q 95 506 117 446 q 74 639 74 567 q 99 781 74 717 q 169 890 124 844 q 280 961 215 936 q 424 986 344 986 q 564 962 501 986 q 671 892 626 938 q 739 783 715 847 q 763 638 763 718 q 756 559 763 599 q 735 475 750 519 q 697 376 721 431 q 636 254 672 322 l 504 0 l 283 0 l 454 325 z "},"\u0000":{"ha":0,"x_min":0,"x_max":0,"o":""},"\r":{"ha":347,"x_min":0,"x_max":0,"o":""}," ":{"ha":833,"x_min":0,"x_max":0,"o":""},"I":{"ha":833,"x_min":103,"x_max":732,"o":"m 103 790 l 103 972 l 732 972 l 732 790 l 569 790 q 526 747 526 790 l 526 226 q 569 183 526 183 l 732 183 l 732 0 l 103 0 l 103 183 l 265 183 q 308 226 308 183 l 308 747 q 265 790 308 790 l 103 790 z "},"H":{"ha":833,"x_min":85,"x_max":749,"o":"m 532 331 q 497 371 532 371 l 339 371 q 303 331 303 371 l 303 0 l 85 0 l 85 972 l 303 972 l 303 607 q 339 568 303 568 l 497 568 q 532 607 532 568 l 532 972 l 749 972 l 749 -1 l 532 -1 l 532 331 z "},"N":{"ha":833,"x_min":85,"x_max":750,"o":"m 750 0 l 558 0 l 307 494 q 278 519 294 519 q 262 510 268 519 q 257 485 256 500 l 283 0 l 85 0 l 85 972 l 276 972 l 528 479 q 556 454 540 454 q 573 464 567 454 q 578 490 579 474 l 551 972 l 750 972 l 750 0 z "},"M":{"ha":833,"x_min":67,"x_max":768,"o":"m 417 600 q 435 607 429 600 q 446 631 440 614 l 575 972 l 768 972 l 768 0 l 578 0 l 607 482 q 603 509 610 500 q 590 518 597 518 q 561 492 574 518 l 471 276 q 449 238 460 249 q 417 226 438 226 q 386 238 397 226 q 364 276 375 250 l 274 492 q 244 518 261 518 q 231 509 236 518 q 226 482 225 500 l 256 0 l 67 0 l 67 972 l 260 972 l 389 631 q 400 607 394 614 q 417 600 406 600 z "},"O":{"ha":833,"x_min":74,"x_max":761,"o":"m 290 314 q 324 216 290 253 q 414 179 358 179 l 419 179 q 510 216 476 179 q 544 314 544 253 l 544 660 q 510 757 544 719 q 419 794 476 794 l 414 794 q 324 757 358 794 q 290 660 290 719 l 290 314 m 74 643 q 99 784 74 721 q 168 892 124 847 q 276 961 213 936 q 417 986 340 986 q 558 962 494 986 q 666 892 621 938 q 736 784 711 847 q 761 643 761 721 l 761 331 q 736 190 761 254 q 666 81 711 126 q 558 11 621 36 q 417 -14 494 -14 q 276 11 340 -14 q 168 81 213 36 q 99 190 124 126 q 74 331 74 254 l 74 643 z "},"E":{"ha":833,"x_min":85,"x_max":769,"o":"m 340 394 q 303 358 303 394 l 303 232 q 340 197 303 197 l 769 197 l 769 0 l 85 0 l 85 972 l 769 972 l 769 776 l 340 776 q 303 740 303 776 l 303 622 q 340 586 303 586 l 729 586 l 729 394 l 340 394 z "},"L":{"ha":833,"x_min":85,"x_max":769,"o":"m 769 197 l 769 0 l 85 0 l 85 972 l 303 972 l 303 240 q 346 197 303 197 l 769 197 z "},"F":{"ha":833,"x_min":85,"x_max":769,"o":"m 340 776 q 303 740 303 776 l 303 590 q 340 554 303 554 l 729 554 l 729 361 l 346 361 q 303 318 303 361 l 303 0 l 85 0 l 85 972 l 769 972 l 769 776 l 340 776 z "},"Q":{"ha":833,"x_min":74,"x_max":761,"o":"m 625 192 l 761 192 l 761 0 l 417 0 q 276 24 339 0 q 167 92 213 49 q 98 199 122 136 q 74 338 74 261 l 74 643 q 99 784 74 721 q 168 892 124 847 q 276 961 213 936 q 417 986 340 986 q 558 961 494 986 q 666 891 621 936 q 736 783 711 846 q 761 642 761 719 l 761 463 q 726 294 761 360 q 625 203 692 228 l 625 192 m 290 326 q 324 230 290 267 q 414 193 358 193 l 419 193 q 510 230 476 193 q 544 326 544 267 l 544 660 q 510 757 544 719 q 419 794 476 794 l 414 794 q 324 757 358 794 q 290 660 290 719 l 290 326 z "},"C":{"ha":833,"x_min":74,"x_max":761,"o":"m 290 314 q 324 216 290 253 q 414 179 358 179 l 419 179 q 510 216 476 179 q 544 314 544 253 l 544 389 l 761 389 l 761 331 q 736 190 761 254 q 666 81 711 126 q 558 11 621 36 q 417 -14 494 -14 q 276 11 340 -14 q 168 81 213 36 q 99 190 124 126 q 74 331 74 254 l 74 643 q 99 784 74 721 q 168 892 124 847 q 276 961 213 936 q 417 986 340 986 q 558 961 494 986 q 666 892 621 936 q 736 784 711 847 q 761 643 761 721 l 761 592 l 544 592 l 544 660 q 510 757 544 719 q 419 794 476 794 l 414 794 q 324 757 358 794 q 290 660 290 719 l 290 314 z "},"G":{"ha":833,"x_min":74,"x_max":761,"o":"m 417 522 l 761 522 l 761 0 l 571 0 l 571 122 l 560 122 q 478 21 532 56 q 349 -14 424 -14 q 235 10 286 -14 q 149 80 185 35 q 93 189 113 125 q 74 331 74 253 l 74 643 q 98 784 74 721 q 167 892 122 847 q 276 962 213 938 q 417 986 339 986 q 558 961 494 986 q 666 892 621 936 q 736 784 711 847 q 761 643 761 721 l 761 638 l 544 638 l 544 660 q 510 757 544 719 q 419 794 476 794 l 414 794 q 324 757 358 794 q 290 660 290 719 l 290 314 q 324 216 290 253 q 414 179 358 179 l 419 179 q 510 216 476 179 q 544 314 544 253 l 544 368 l 417 368 l 417 522 z "},"D":{"ha":833,"x_min":85,"x_max":761,"o":"m 85 0 l 85 972 l 432 972 q 566 947 506 972 q 670 878 626 922 q 738 770 714 833 q 761 629 761 707 l 761 338 q 738 199 761 261 q 671 92 714 136 q 567 24 628 49 q 432 0 507 0 l 85 0 m 303 238 q 339 197 303 197 l 417 197 q 510 235 475 197 q 544 331 544 272 l 544 643 q 510 739 544 701 q 417 776 475 776 l 339 776 q 303 738 303 776 l 303 238 z "},"U":{"ha":833,"x_min":79,"x_max":756,"o":"m 539 972 l 756 972 l 756 331 q 731 190 756 254 q 663 81 707 126 q 556 11 618 36 q 417 -14 493 -14 q 278 11 340 -14 q 172 81 217 36 q 103 190 128 126 q 79 331 79 253 l 79 972 l 297 972 l 297 329 q 329 232 297 269 q 414 194 361 194 l 419 194 q 506 232 472 194 q 539 329 539 269 l 539 972 z "},"P":{"ha":833,"x_min":85,"x_max":761,"o":"m 440 972 q 572 950 513 972 q 673 888 631 928 q 738 791 715 847 q 761 665 761 735 l 761 588 q 739 463 761 518 q 675 367 717 407 q 574 306 633 328 q 442 285 515 285 l 303 285 l 303 0 l 85 0 l 85 972 l 440 972 m 303 511 q 339 472 303 472 l 417 472 q 510 508 476 472 q 544 606 544 543 l 544 653 q 510 751 544 715 q 417 786 476 786 l 339 786 q 303 747 303 786 l 303 511 z "},"T":{"ha":833,"x_min":58,"x_max":776,"o":"m 526 0 l 308 0 l 308 732 q 265 776 308 776 l 58 776 l 58 972 l 776 972 l 776 776 l 569 776 q 526 732 526 776 l 526 0 z "},"K":{"ha":833,"x_min":85,"x_max":781,"o":"m 435 610 l 550 972 l 781 972 l 617 486 l 781 0 l 550 0 l 433 360 q 418 384 429 375 q 392 393 407 393 l 332 393 q 310 385 318 393 q 303 364 303 376 l 303 0 l 85 0 l 85 972 l 303 972 l 303 606 q 310 585 303 593 q 332 576 318 576 l 392 576 q 435 610 424 576 z "},"B":{"ha":833,"x_min":85,"x_max":761,"o":"m 303 219 q 339 181 303 181 l 426 181 q 517 204 489 181 q 544 281 544 228 l 544 313 q 517 389 544 365 q 426 413 489 413 l 339 413 q 303 374 303 413 l 303 219 m 303 614 q 339 575 303 575 l 417 575 q 507 599 479 575 q 535 675 535 622 l 535 693 q 507 769 535 746 q 417 793 479 793 l 339 793 q 303 754 303 793 l 303 614 m 619 493 q 761 300 761 451 l 761 239 q 688 64 761 128 q 488 0 615 0 l 85 0 l 85 972 l 479 972 q 678 909 606 972 q 751 736 751 846 l 751 682 q 619 493 751 536 z "},"V":{"ha":833,"x_min":47,"x_max":786,"o":"m 565 972 l 786 972 l 615 140 q 563 38 604 76 q 458 0 521 0 l 246 0 l 47 972 l 269 972 l 392 225 q 417 199 396 199 q 442 225 438 199 l 565 972 z "},"W":{"ha":833,"x_min":60,"x_max":775,"o":"m 550 0 l 443 335 q 433 358 439 350 q 417 365 428 365 q 401 358 406 365 q 390 335 396 350 l 285 0 l 115 0 l 60 972 l 250 972 l 229 499 q 235 473 228 482 q 250 464 242 464 q 267 470 258 464 q 281 492 275 476 l 368 728 q 417 769 382 769 q 447 760 436 769 q 467 728 458 750 l 554 492 q 568 470 560 476 q 585 464 576 464 q 601 473 594 464 q 606 499 607 482 l 585 972 l 775 972 l 719 0 l 550 0 z "},"J":{"ha":833,"x_min":74,"x_max":763,"o":"m 74 790 l 74 972 l 763 972 l 763 790 l 604 790 l 604 344 q 511 80 604 174 q 247 -14 418 -14 q 157 -7 201 -14 q 82 14 113 0 l 82 207 q 113 197 94 201 q 151 188 131 192 q 192 183 171 185 q 229 181 213 181 q 347 222 307 181 q 386 338 386 263 l 386 749 q 343 790 386 790 l 74 790 z "},"R":{"ha":833,"x_min":85,"x_max":781,"o":"m 443 972 q 572 954 514 972 q 672 903 631 936 q 735 822 713 869 q 757 715 757 774 l 757 693 q 743 614 757 651 q 703 546 729 576 q 642 494 678 515 q 563 465 606 474 l 563 454 q 674 340 643 436 l 781 0 l 551 0 l 451 338 q 411 369 440 369 l 332 369 q 303 339 303 369 l 303 0 l 85 0 l 85 972 l 443 972 m 303 583 q 339 543 303 543 l 419 543 q 509 574 478 543 q 540 661 540 604 l 540 672 q 509 759 540 729 q 419 789 478 789 l 339 789 q 303 749 303 789 l 303 583 z "},"Y":{"ha":833,"x_min":58,"x_max":776,"o":"m 553 972 l 776 972 l 644 411 q 603 340 635 368 q 526 303 572 313 l 526 0 l 308 0 l 308 299 l 211 299 l 58 972 l 282 972 l 392 482 q 417 460 399 460 q 442 482 438 460 l 553 972 z "},"Z":{"ha":833,"x_min":79,"x_max":756,"o":"m 421 776 l 79 776 l 79 972 l 756 972 l 756 778 l 397 263 q 382 217 378 235 q 414 199 386 199 l 756 199 l 756 3 l 79 3 l 79 197 l 438 713 q 453 758 457 740 q 421 776 450 776 z "},"S":{"ha":833,"x_min":65,"x_max":769,"o":"m 290 275 q 323 190 290 219 q 418 160 356 160 l 424 160 q 519 190 486 160 q 551 272 551 219 l 551 281 q 496 367 551 344 l 260 456 q 79 694 79 525 l 79 714 q 103 827 79 776 q 170 913 126 878 q 277 967 214 949 q 419 986 340 986 q 667 914 578 986 q 756 714 756 842 l 756 671 l 539 671 l 539 700 q 508 785 539 756 q 419 814 478 814 l 414 814 q 327 789 357 814 q 297 717 297 764 l 297 713 q 315 664 297 686 q 360 631 332 642 l 596 540 q 769 299 769 475 l 769 281 q 744 158 769 213 q 674 66 719 104 q 563 7 628 28 q 415 -14 497 -14 q 270 6 335 -14 q 160 63 206 26 q 90 152 114 100 q 65 269 65 204 l 65 340 l 290 340 l 290 275 z "},"X":{"ha":833,"x_min":60,"x_max":776,"o":"m 292 0 l 60 0 l 244 486 l 67 972 l 294 972 l 399 654 q 417 635 406 635 q 436 654 429 635 l 540 972 l 769 972 l 589 486 l 776 0 l 543 0 l 436 319 q 417 340 431 340 q 399 319 406 340 l 292 0 z "},"!":{"ha":833,"x_min":285,"x_max":550,"o":"m 329 353 l 290 625 l 285 972 l 550 972 l 544 625 l 510 353 l 329 353 m 296 228 l 538 228 l 538 0 l 296 0 l 296 228 z "},".":{"ha":833,"x_min":292,"x_max":542,"o":"m 292 250 l 542 250 l 542 0 l 292 0 l 292 250 z "},",":{"ha":833,"x_min":292,"x_max":542,"o":"m 294 250 l 542 250 l 449 -215 l 292 -215 l 294 250 z "},"-":{"ha":833,"x_min":163,"x_max":672,"o":"m 163 533 l 672 533 l 672 378 l 163 378 l 163 533 z "},"+":{"ha":833,"x_min":93,"x_max":742,"o":"m 329 176 l 329 424 l 93 424 l 93 579 l 329 579 l 329 826 l 504 826 l 504 579 l 742 579 l 742 424 l 504 424 l 504 176 l 329 176 z "},"/":{"ha":833,"x_min":113,"x_max":722,"o":"m 497 1028 l 722 1028 l 339 -56 l 113 -56 l 497 1028 z "},"\\":{"ha":833,"x_min":113,"x_max":722,"o":"m 497 -56 l 113 1028 l 339 1028 l 722 -56 l 497 -56 z "},"'":{"ha":833,"x_min":304,"x_max":531,"o":"m 304 972 l 531 972 l 521 726 l 500 493 l 335 493 l 314 726 l 304 972 z "},"\"":{"ha":833,"x_min":133,"x_max":701,"o":"m 133 972 l 360 972 l 350 726 l 331 493 l 164 493 l 143 726 l 133 972 m 476 972 l 701 972 l 693 726 l 672 493 l 506 493 l 485 726 l 476 972 z "},"#":{"ha":833,"x_min":76,"x_max":757,"o":"m 481 565 l 367 565 l 350 406 l 464 406 l 481 565 m 603 0 l 424 0 l 449 246 l 335 246 l 310 0 l 131 0 l 156 246 l 76 246 l 76 406 l 171 406 l 188 565 l 76 565 l 76 725 l 203 725 l 228 972 l 407 972 l 382 725 l 496 725 l 521 972 l 700 972 l 675 725 l 757 725 l 757 565 l 660 565 l 643 406 l 757 406 l 757 246 l 628 246 l 603 0 z "},"^":{"ha":833,"x_min":85,"x_max":750,"o":"m 525 972 l 750 518 l 558 518 l 440 789 q 417 811 432 811 q 394 789 403 811 l 276 518 l 85 518 l 308 972 l 525 972 z "},"&":{"ha":833,"x_min":71,"x_max":797,"o":"m 296 707 l 296 686 q 383 589 296 589 l 797 589 l 797 425 l 729 425 l 729 0 l 538 0 l 538 128 l 528 128 q 433 26 496 61 q 288 -8 371 -8 q 126 51 181 -8 q 71 226 71 110 l 71 306 q 106 426 71 376 q 194 485 142 475 l 194 496 q 148 517 169 500 q 110 559 126 533 q 85 617 94 585 q 76 688 76 650 l 76 715 q 162 911 76 842 q 400 981 247 981 q 638 911 553 981 q 724 715 724 842 l 724 694 l 506 694 l 506 707 q 404 813 506 813 l 397 813 q 296 707 296 813 m 513 286 l 513 425 l 378 425 q 312 400 335 425 q 289 329 289 375 l 289 274 q 383 161 289 161 q 434 171 411 161 q 475 197 457 181 q 503 237 493 214 q 513 286 513 260 z "},"$":{"ha":833,"x_min":65,"x_max":769,"o":"m 585 521 q 722 424 675 489 q 769 267 769 358 q 704 90 769 158 q 522 4 639 21 l 522 -139 l 313 -139 l 313 0 l 65 0 l 65 182 l 458 182 q 529 208 503 182 q 556 275 556 235 q 542 329 556 304 q 501 365 528 354 l 256 453 q 119 549 167 483 q 72 706 72 615 q 136 881 72 813 q 313 967 200 949 l 313 1111 l 522 1111 l 522 972 l 763 972 l 763 792 l 383 792 q 313 765 339 792 q 286 697 286 738 q 300 644 286 668 q 340 610 314 619 l 585 521 z "},"%":{"ha":833,"x_min":76,"x_max":757,"o":"m 535 150 q 550 103 535 121 q 593 86 565 86 l 594 86 q 638 103 622 86 q 653 150 653 121 l 653 288 q 638 335 653 318 q 594 351 622 351 l 593 351 q 550 335 565 351 q 535 288 535 318 l 535 150 m 182 685 q 197 638 182 656 q 240 621 213 621 l 242 621 q 284 638 269 621 q 299 685 299 656 l 299 822 q 242 886 299 886 l 240 886 q 197 869 213 886 q 182 822 182 853 l 182 685 m 243 438 l 375 438 l 208 0 l 76 0 l 243 438 m 757 163 q 713 34 757 82 q 593 -14 668 -14 q 474 34 518 -14 q 431 163 431 82 l 431 275 q 474 403 431 354 q 593 451 517 451 q 713 404 668 451 q 757 275 757 357 l 757 163 m 404 699 q 361 570 404 619 q 240 521 318 521 q 121 569 165 521 q 76 699 76 617 l 76 811 q 121 940 76 893 q 240 986 165 986 q 360 939 317 986 q 404 811 404 892 l 404 699 m 593 535 l 461 535 l 625 972 l 757 972 l 593 535 z "},"(":{"ha":833,"x_min":117,"x_max":710,"o":"m 692 -167 l 640 -167 q 429 -122 525 -167 q 264 2 333 -78 q 156 193 194 82 q 117 438 117 304 q 156 682 117 571 q 264 873 194 793 q 429 997 333 953 q 640 1042 525 1042 l 692 1042 l 710 872 l 675 872 q 538 841 600 872 q 433 753 476 810 q 365 616 389 696 q 342 438 342 536 q 366 260 342 340 q 434 124 390 181 q 539 35 478 67 q 675 3 600 3 l 710 3 l 692 -167 z "},")":{"ha":833,"x_min":117,"x_max":710,"o":"m 135 1042 l 186 1042 q 397 997 301 1042 q 563 873 493 953 q 671 682 632 793 q 710 438 710 571 q 671 194 710 306 q 563 3 632 83 q 397 -122 493 -78 q 186 -167 301 -167 l 135 -167 l 117 3 l 153 3 q 289 34 228 3 q 394 122 350 65 q 461 260 438 179 q 485 438 485 340 q 461 616 485 536 q 394 753 438 696 q 289 841 350 810 q 153 872 228 872 l 117 872 l 135 1042 z "},"[":{"ha":833,"x_min":165,"x_max":671,"o":"m 165 -167 l 165 1042 l 671 1042 l 671 875 l 390 875 l 390 1 l 671 1 l 671 -167 l 165 -167 z "},"]":{"ha":833,"x_min":165,"x_max":671,"o":"m 671 1042 l 671 -167 l 165 -167 l 165 1 l 444 1 l 444 875 l 165 875 l 165 1042 l 671 1042 z "},"_":{"ha":833,"x_min":74,"x_max":763,"o":"m 74 0 l 763 0 l 763 -157 l 74 -157 l 74 0 z "},"`":{"ha":833,"x_min":253,"x_max":582,"o":"m 253 1153 l 465 1153 l 536 1001 l 582 868 l 436 868 l 339 1001 l 253 1153 z "},"a":{"ha":833,"x_min":64,"x_max":749,"o":"m 303 524 l 303 506 l 93 506 l 93 513 q 116 623 93 574 q 181 706 139 672 q 285 759 224 740 q 421 778 346 778 q 556 759 496 778 q 660 706 617 740 q 726 623 703 672 q 749 513 749 574 l 749 0 l 554 0 l 554 111 l 540 111 q 426 19 494 53 q 281 -14 357 -14 q 122 40 181 -14 q 64 185 64 94 l 64 201 q 110 329 64 275 q 236 404 157 383 l 472 467 q 532 535 532 483 q 503 600 532 575 q 428 625 475 625 l 424 625 q 335 597 368 625 q 303 524 303 569 m 532 325 l 532 349 l 336 296 q 295 269 310 289 q 281 225 281 250 l 281 221 q 302 164 281 185 q 360 143 324 143 q 422 159 392 143 q 477 201 453 175 q 517 259 501 226 q 532 325 532 292 z "},"o":{"ha":833,"x_min":85,"x_max":749,"o":"m 532 474 q 502 567 532 532 q 419 601 472 601 l 414 601 q 333 567 363 601 q 303 474 303 532 l 303 292 q 333 199 303 233 q 414 164 363 164 l 419 164 q 502 199 472 164 q 532 292 532 233 l 532 474 m 749 310 q 660 72 749 158 q 417 -14 572 -14 q 173 72 261 -14 q 85 310 85 158 l 85 457 q 173 692 85 607 q 417 778 261 778 q 660 692 572 778 q 749 457 749 607 l 749 310 z "},"n":{"ha":833,"x_min":85,"x_max":749,"o":"m 532 465 q 502 558 532 524 q 419 593 472 593 l 414 593 q 333 558 363 593 q 303 465 303 524 l 303 0 l 85 0 l 85 764 l 303 764 l 303 682 l 314 682 q 504 778 389 778 q 603 758 558 778 q 681 701 649 738 q 731 614 714 665 q 749 500 749 563 l 749 0 l 532 0 l 532 465 z "},"h":{"ha":833,"x_min":85,"x_max":749,"o":"m 532 465 q 502 558 532 524 q 419 593 472 593 l 414 593 q 333 558 363 593 q 303 465 303 524 l 303 0 l 85 0 l 85 1028 l 303 1028 l 303 682 l 314 682 q 504 778 389 778 q 603 758 558 778 q 681 701 649 738 q 731 614 714 665 q 749 500 749 563 l 749 0 l 532 0 l 532 465 z "},"b":{"ha":833,"x_min":85,"x_max":749,"o":"m 532 482 q 502 574 532 540 q 419 608 472 608 l 414 608 q 333 574 363 608 q 303 482 303 540 l 303 285 q 333 191 303 226 q 414 156 363 156 l 419 156 q 502 191 472 156 q 532 285 532 226 l 532 482 m 303 682 l 314 682 q 391 754 346 731 q 500 778 436 778 q 684 701 619 778 q 749 479 749 624 l 749 285 q 685 64 749 142 q 501 -14 621 -14 q 391 10 436 -14 q 314 83 346 33 l 303 83 l 289 0 l 85 0 l 85 1028 l 303 1028 l 303 682 z "},"i":{"ha":833,"x_min":85,"x_max":749,"o":"m 535 1071 l 535 867 l 299 867 l 299 1071 l 535 1071 m 749 183 l 749 0 l 85 0 l 85 183 l 265 183 q 308 228 308 183 l 308 538 q 265 581 308 581 l 85 581 l 85 764 l 526 764 l 526 228 q 569 183 526 183 l 749 183 z "},"c":{"ha":833,"x_min":85,"x_max":749,"o":"m 303 292 q 333 199 303 233 q 414 164 363 164 l 419 164 q 502 199 472 164 q 532 292 532 233 l 532 307 l 749 307 l 749 292 q 726 167 749 224 q 660 71 703 111 q 556 8 617 31 q 417 -14 494 -14 q 173 72 261 -14 q 85 310 85 158 l 85 457 q 173 692 85 607 q 417 778 261 778 q 556 756 494 778 q 660 694 617 733 q 726 598 703 654 q 749 474 749 542 l 749 461 l 532 461 l 532 474 q 502 567 532 532 q 419 601 472 601 l 414 601 q 333 567 363 601 q 303 474 303 532 l 303 292 z "},"d":{"ha":833,"x_min":85,"x_max":749,"o":"m 303 482 l 303 285 q 333 191 303 226 q 414 156 363 156 l 419 156 q 502 191 472 156 q 532 285 532 226 l 532 482 q 502 574 532 540 q 419 608 472 608 l 414 608 q 333 574 363 608 q 303 482 303 540 m 532 83 l 521 83 q 333 -14 460 -14 q 149 64 213 -14 q 85 285 85 142 l 85 479 q 149 701 85 624 q 333 778 214 778 q 521 682 460 778 l 532 682 l 532 1028 l 749 1028 l 749 0 l 546 0 l 532 83 z "},"p":{"ha":833,"x_min":85,"x_max":749,"o":"m 532 285 l 532 482 q 502 574 532 540 q 419 608 472 608 l 414 608 q 333 574 363 608 q 303 482 303 540 l 303 285 q 333 191 303 226 q 414 156 363 156 l 419 156 q 502 191 472 156 q 532 285 532 226 m 303 682 l 314 682 q 391 754 346 731 q 501 778 436 778 q 685 701 621 778 q 749 479 749 624 l 749 285 q 684 64 749 142 q 500 -14 619 -14 q 314 83 376 -14 l 303 83 l 303 -264 l 85 -264 l 85 764 l 289 764 l 303 682 z "},"q":{"ha":833,"x_min":85,"x_max":749,"o":"m 303 285 q 333 191 303 226 q 414 156 363 156 l 419 156 q 502 191 472 156 q 532 285 532 226 l 532 482 q 502 574 532 540 q 419 608 472 608 l 414 608 q 333 574 363 608 q 303 482 303 540 l 303 285 m 532 83 l 521 83 q 333 -14 460 -14 q 149 64 214 -14 q 85 285 85 142 l 85 479 q 149 701 85 624 q 333 778 213 778 q 521 682 460 778 l 532 682 l 546 764 l 749 764 l 749 -264 l 532 -264 l 532 83 z "},"r":{"ha":833,"x_min":89,"x_max":763,"o":"m 89 183 l 172 183 q 215 228 215 183 l 215 538 q 172 581 215 581 l 89 581 l 89 764 l 267 764 q 370 728 333 764 q 410 626 407 693 l 421 626 q 503 739 443 700 q 653 778 564 778 q 714 772 685 778 q 763 756 743 767 l 763 547 q 657 567 714 567 q 492 519 553 567 q 432 389 432 471 l 432 183 l 671 183 l 671 0 l 89 0 l 89 183 z "},"e":{"ha":833,"x_min":85,"x_max":749,"o":"m 525 236 l 739 236 q 630 52 715 118 q 417 -14 544 -14 q 278 8 340 -14 q 174 73 217 31 q 108 175 131 115 q 85 310 85 235 l 85 457 q 173 692 85 607 q 417 778 261 778 q 660 692 572 778 q 749 457 749 607 l 749 336 l 303 336 l 303 290 q 333 193 303 229 q 414 157 364 157 l 419 157 q 485 178 457 157 q 525 236 514 200 m 532 490 q 500 575 532 542 q 419 608 468 608 l 414 608 q 334 575 365 608 q 303 490 303 542 l 303 465 l 532 465 l 532 490 z "},"l":{"ha":833,"x_min":85,"x_max":749,"o":"m 749 183 l 749 0 l 85 0 l 85 183 l 265 183 q 308 228 308 183 l 308 801 q 265 844 308 844 l 85 844 l 85 1028 l 526 1028 l 526 228 q 569 183 526 183 l 749 183 z "},"f":{"ha":833,"x_min":78,"x_max":749,"o":"m 510 858 q 467 815 467 858 l 467 722 l 749 722 l 749 539 l 467 539 l 467 0 l 249 0 l 249 539 l 78 539 l 78 722 l 249 722 l 249 813 q 483 1042 249 1042 l 749 1042 l 749 858 l 510 858 z "},"m":{"ha":833,"x_min":56,"x_max":778,"o":"m 506 528 l 506 0 l 328 0 l 328 528 q 282 593 328 593 q 236 528 236 593 l 236 0 l 56 0 l 56 764 l 225 764 l 225 694 l 235 694 q 363 778 271 778 q 478 694 449 778 l 489 694 q 544 756 507 733 q 626 778 581 778 q 738 725 697 778 q 778 579 778 672 l 778 0 l 597 0 l 597 528 q 551 593 597 593 q 506 528 506 593 z "},"t":{"ha":833,"x_min":54,"x_max":719,"o":"m 719 183 l 719 0 l 475 0 q 240 231 240 0 l 240 581 l 54 581 l 54 764 l 240 764 l 240 931 l 457 931 l 457 764 l 719 764 l 719 581 l 503 581 q 457 538 457 581 l 457 228 q 500 183 457 183 l 719 183 z "},"j":{"ha":833,"x_min":88,"x_max":706,"o":"m 706 1071 l 706 867 l 469 867 l 469 1071 l 706 1071 m 133 581 l 133 764 l 696 764 l 696 43 q 598 -218 696 -126 q 315 -310 500 -310 q 190 -298 249 -310 q 88 -264 132 -286 l 88 -78 q 130 -93 104 -86 q 184 -105 156 -100 q 242 -113 213 -110 q 294 -117 271 -117 q 429 -72 381 -117 q 478 51 478 -28 l 478 539 q 438 581 478 581 l 133 581 z "},"k":{"ha":833,"x_min":85,"x_max":781,"o":"m 529 764 l 765 764 l 590 415 l 781 0 l 540 0 l 413 304 q 371 335 400 335 l 331 335 q 303 303 303 335 l 303 0 l 85 0 l 85 1028 l 303 1028 l 303 524 q 331 494 303 494 l 371 494 q 408 524 394 494 l 529 764 z "},"u":{"ha":833,"x_min":85,"x_max":749,"o":"m 303 300 q 333 207 303 242 q 414 172 363 172 l 419 172 q 502 207 472 172 q 532 300 532 242 l 532 764 l 749 764 l 749 0 l 532 0 l 532 83 l 521 83 q 329 -14 444 -14 q 230 6 275 -14 q 152 63 185 26 q 102 151 119 100 q 85 264 85 201 l 85 764 l 303 764 l 303 300 z "},"s":{"ha":833,"x_min":85,"x_max":750,"o":"m 532 214 l 532 221 q 517 263 532 244 q 478 288 503 281 l 244 349 q 131 417 172 368 q 90 538 90 467 l 90 557 q 114 648 90 607 q 181 717 138 689 q 283 762 224 746 q 414 778 342 778 q 549 761 489 778 q 651 713 608 744 q 716 638 693 682 q 739 540 739 594 l 739 517 l 525 517 l 525 532 q 419 626 525 626 l 414 626 q 310 553 310 626 l 310 547 q 325 506 310 524 q 364 481 340 488 l 599 419 q 710 352 671 401 q 750 233 750 303 l 750 215 q 726 122 750 164 q 660 49 703 79 q 556 2 617 18 q 419 -14 494 -14 q 281 3 343 -14 q 175 53 218 21 q 108 131 132 85 q 85 233 85 176 l 85 256 l 304 256 l 304 233 q 415 139 304 139 l 419 139 q 532 214 532 139 z "},"x":{"ha":833,"x_min":58,"x_max":776,"o":"m 417 258 q 399 242 406 258 l 296 0 l 58 0 l 239 382 l 67 764 l 301 764 l 399 522 q 417 508 403 508 q 436 522 432 508 l 533 764 l 768 764 l 596 382 l 776 0 l 539 0 l 436 242 q 417 258 431 258 z "},"v":{"ha":833,"x_min":60,"x_max":776,"o":"m 557 764 l 776 764 l 633 110 q 580 31 622 61 q 475 0 538 0 l 224 0 l 60 764 l 278 764 l 392 211 q 417 188 396 188 q 442 211 438 188 l 557 764 z "},"w":{"ha":833,"x_min":60,"x_max":776,"o":"m 536 0 l 446 233 q 433 255 439 249 q 417 261 428 261 q 390 233 400 261 l 299 0 l 121 0 l 60 764 l 246 764 l 244 369 q 251 348 243 356 q 268 340 258 340 q 294 361 286 340 l 376 554 q 393 584 385 575 q 417 593 401 593 q 441 584 432 593 q 458 554 450 575 l 539 361 q 565 340 547 340 q 583 348 575 340 q 590 369 590 356 l 589 764 l 776 764 l 715 0 l 536 0 z "},"z":{"ha":833,"x_min":79,"x_max":756,"o":"m 408 581 l 79 581 l 79 764 l 756 764 l 756 593 l 414 229 q 403 200 399 214 q 431 186 408 186 l 756 186 l 756 3 l 79 3 l 79 167 l 424 533 q 435 566 440 551 q 408 581 431 581 z "},"y":{"ha":833,"x_min":60,"x_max":775,"o":"m 588 25 q 447 -222 550 -135 q 196 -310 343 -310 q 67 -292 125 -310 l 67 -107 q 127 -114 93 -111 q 186 -117 161 -117 q 263 -99 228 -117 q 326 -53 299 -82 q 374 10 354 -25 q 404 83 394 46 l 228 83 l 60 764 l 279 764 l 392 253 q 417 229 396 229 q 442 253 438 229 l 554 764 l 775 764 l 588 25 z "},"g":{"ha":854,"x_min":60,"x_max":778,"o":"m 315 481 q 414 378 315 378 l 419 378 q 519 481 519 378 l 519 522 q 419 624 519 624 l 414 624 q 315 522 315 624 l 315 481 m 488 -156 q 538 -137 519 -156 q 557 -89 557 -119 l 557 -71 q 538 -26 557 -43 q 488 -8 519 -8 l 347 -8 q 296 -26 315 -8 q 276 -71 276 -43 l 276 -89 q 296 -137 276 -119 q 347 -156 315 -156 l 488 -156 m 343 238 q 304 188 304 228 q 317 149 304 164 q 349 133 331 133 l 539 133 q 635 119 592 133 q 709 80 678 106 q 758 19 740 54 q 775 -58 775 -17 l 775 -103 q 489 -296 775 -296 l 353 -296 q 60 -103 60 -296 l 60 -58 q 90 35 60 -4 q 174 93 121 75 q 126 179 126 124 q 144 240 126 213 q 194 283 163 268 q 128 357 151 313 q 104 458 104 401 l 104 528 q 124 624 104 581 q 180 699 143 668 q 267 747 217 731 q 381 764 318 764 l 778 764 l 778 604 l 635 604 l 635 594 q 704 543 679 581 q 729 453 729 506 l 729 428 q 710 351 729 386 q 659 292 692 317 q 582 252 626 267 q 485 238 538 238 l 364 238 l 343 238 z "},"*":{"ha":833,"x_min":110,"x_max":724,"o":"m 336 972 l 493 972 l 485 844 l 474 743 l 551 786 l 672 838 l 724 694 l 600 654 l 510 632 l 574 561 l 653 460 l 528 372 l 458 481 l 417 556 l 378 481 l 308 372 l 181 460 l 260 561 l 325 632 l 235 654 l 110 694 l 163 838 l 283 786 l 356 747 l 343 844 l 336 972 z "},"A":{"ha":833,"x_min":46,"x_max":789,"o":"m 342 460 q 374 421 335 421 l 463 421 q 494 460 501 421 l 440 764 q 417 785 436 785 q 394 764 396 785 l 342 460 m 525 211 q 512 245 519 235 q 486 256 504 256 l 349 256 q 324 245 332 256 q 311 211 315 235 l 267 0 l 46 0 l 231 829 q 285 939 247 906 q 397 972 322 972 l 572 972 l 789 0 l 568 0 l 525 211 z "}}}
